<?xml version="1.0" encoding="utf-8"?>
<!-- Generator: Adobe Illustrator 23.0.6, SVG Export Plug-In . SVG Version: 6.00 Build 0)  -->
<svg version="1.1" id="Layer_1" xmlns="http://www.w3.org/2000/svg" xmlns:xlink="http://www.w3.org/1999/xlink" x="0px" y="0px"
	 viewBox="0 0 555.72 486.5" style="enable-background:new 0 0 555.72 486.5;" xml:space="preserve">
<style type="text/css">
	.st0{opacity:0.1;fill:#FFFFFF;}
	.st1{fill:#FFFFFF;}
</style>
<path class="st0" d="M553.79,235.13L422.85,8.12C420.27,3.65,413.95,0,408.8,0H146.92c-5.15,0-11.47,3.65-14.05,8.12L1.93,235.13
	c-2.58,4.46-2.58,11.77,0,16.24l130.94,227.01c2.58,4.46,8.9,8.12,14.05,8.12H408.8c5.15,0,11.47-3.65,14.05-8.12l130.94-227.01
	C556.36,246.9,556.36,239.6,553.79,235.13z M536.75,250.87l-122.86,213c-2.42,4.19-8.35,7.62-13.18,7.62H155
	c-4.83,0-10.76-3.43-13.18-7.62l-122.86-213c-2.42-4.19-2.42-11.04,0-15.23l122.86-213c2.42-4.19,8.35-7.62,13.18-7.62h245.72
	c4.83,0,10.76,3.43,13.18,7.62l122.86,213C539.17,239.82,539.17,246.68,536.75,250.87z"/>
<g>
	<path class="st1" d="M197.28,266.96c1.06,0.6,2.27,1.36,3.63,1.96c0.6,0.3,1.06,1.06,0.91,1.81c-0.3,0.91-1.66,0.91-1.66,0.91
		h-40.93c0,0-1.21,0-1.51-0.91c-0.15-0.76,0.3-1.51,0.91-1.81c1.21-0.6,2.57-1.36,3.47-1.96c3.78-2.57,4.98-5.59,4.98-15.41v-47.43
		H158v-7.4h9.06v-6.49c0-9.67-0.76-23.41,11.33-31.42c6.04-3.93,14.95-4.98,21.3-2.27c4.53,1.81,8.61,6.04,9.52,10.72
		c0.45,3.32-0.3,8.01-3.63,11.18c-3.32,2.87-8.16,4.08-11.63,3.02c-4.08-0.91-6.95-3.78-8.46-8.61c-0.45-0.91-0.6-2.42-0.76-3.47
		c-0.15-1.06-0.3-2.87-1.66-3.17c-1.51-0.3-3.17,1.51-3.47,3.63c-0.15,0.91-0.45,2.57,0,4.99c1.36,5.59,4.53,15.1,12.99,19.03
		c4.68,2.27,12.54,2.87,12.54,2.87v7.4h-12.84v47.43C192.29,261.37,193.65,264.39,197.28,266.96z"/>
	<path class="st1" d="M245.91,251.55c0,9.82,1.36,12.84,4.99,15.41c1.06,0.6,2.27,1.36,3.63,1.96c0.6,0.3,1.06,1.06,0.91,1.81
		c-0.3,0.91-1.66,0.91-1.66,0.91h-40.93c0,0-1.21,0-1.51-0.91c-0.15-0.76,0.3-1.51,0.91-1.81c1.21-0.6,2.57-1.36,3.47-1.96
		c3.78-2.57,4.98-5.59,4.98-15.41v-26.58c0-9.67-1.21-20.84-4.98-23.41c-0.91-0.6-2.27-1.21-3.47-1.81
		c-0.6-0.45-1.06-1.06-0.91-1.66c0.3-0.91,1.51-1.06,1.51-1.06l29.45-0.27c3.1,0.13,3.63-0.15,3.63,2.42V251.55z M234.13,158.2
		c7.7,0,13.9,6.04,13.9,13.75c0,7.7-6.19,13.9-13.9,13.9c-7.7,0-13.9-6.19-13.9-13.9C220.23,164.25,226.43,158.2,234.13,158.2z"/>
	<path class="st1" d="M290.99,199.74c-2.72,3.47-3.93,6.65-2.87,10.42c0.6,1.81,11.03,26.74,11.03,26.74l7.25-15.26
		c4.99-10.57,7.55-15.56,1.81-22.05c0,0-0.45-0.76-0.15-1.36c0.3-0.45,1.51-0.45,1.51-0.45h17.67c1.66,0,1.96,0.15,2.27,0.76
		c0.6,0.75-0.6,1.66-0.6,1.66c-3.47,3.02-5.59,5.44-7.7,10.57l-26.74,60.57c-0.91,1.81-1.51,2.42-3.17,2.42
		c-2.57,0-3.17-2.57-4.23-5.14l-27.19-60.27c-1.06-2.27-1.81-3.32-2.87-4.98c-1.66-2.27-3.47-3.32-3.02-4.68
		c0.45-0.91,1.21-0.91,3.93-0.91h30.21c1.66,0,2.87-0.15,3.17,0.6C291.45,198.84,291.45,199.29,290.99,199.74z"/>
	<path class="st1" d="M359.68,252.46c5.14,3.02,15.71,3.78,21.9,0.76c6.04-3.17,8.01-6.04,12.39-11.93c0,0,0.91-0.45,1.21-0.3
		c0.6,0.3,0.45,1.06,0.45,1.06c-1.36,10.12-7.7,22.2-20.09,28.25c-9.67,4.83-23.71,4.38-33.23-0.91
		c-11.48-6.34-17.07-19.03-17.98-29.61c-0.91-10.12,2.57-27.79,14.35-37.61c10.12-8.46,25.23-9.06,34.44-6.34
		c9.97,2.87,16.77,8.31,20.24,19.03c0.91,2.87,3.32,14.2,1.96,16.16c-1.21,1.36-6.49,1.06-14.65,1.06h-31.12
		C349.86,238.71,351.82,248.08,359.68,252.46z M371.01,220.13c0.3-1.06,0.3-2.27,0.3-3.93c0-4.68-0.6-10.27-5.74-12.99
		c-3.02-1.66-6.65-1.21-9.21,0.45c-7.55,4.83-7.1,14.95-6.49,20.24c3.47,0,16.31,0,16.31,0C368.59,223.91,370.4,222.1,371.01,220.13
		z"/>
</g>
<g>
	<path class="st1" d="M90.12,238.07v-20.79h-4.73v-2.53h7.36v23.32H90.12z"/>
	<path class="st1" d="M103.61,236.5l1.07-2.13c1.53,0.9,3.56,1.43,5.36,1.43c5,0,7.49-4.1,7.13-10.39
		c-1.03,2.73-3.53,4.26-6.96,4.26c-4.56,0-7.39-2.83-7.39-7.33c0-4.76,3.1-7.73,7.89-7.73c5.66,0,9.09,4.1,9.09,11.26
		c0,7.43-3.66,12.29-9.59,12.29C108.07,238.17,105.51,237.5,103.61,236.5z M116.57,222.18c0-2.23-1.7-5.1-5.7-5.1
		c-3.3,0-5.56,1.97-5.56,5.3c0,3.1,2.07,5.03,5.36,5.03C114.37,227.41,116.57,224.94,116.57,222.18z"/>
</g>
<g>
	<path class="st1" d="M447.38,220.48c0,2.4-1.43,4.16-3.8,5.1c3.03,0.9,4.9,3,4.9,5.93c0,4.16-3.3,6.66-8.56,6.66
		c-5.33,0-8.63-2.5-8.63-6.6c0-2.96,1.93-5.1,5.03-6c-2.43-0.97-3.9-2.76-3.9-5.16c0-3.63,2.9-5.8,7.46-5.8
		C444.51,214.62,447.38,216.82,447.38,220.48z M433.82,231.27c0,2.93,2.27,4.63,6.1,4.63c3.76,0,6.06-1.7,6.06-4.63
		c0-2.76-2.26-4.43-6.1-4.43C436.09,226.84,433.82,228.51,433.82,231.27z M434.72,220.65c0,2.5,1.93,3.96,5.2,3.96
		c3.23,0,5.16-1.47,5.16-3.96c0-2.5-1.93-3.96-5.16-3.96C436.65,216.68,434.72,218.15,434.72,220.65z"/>
	<path class="st1" d="M460.63,238.04h-2.83l9.59-20.75h-10.86v3.4h-2.4v-5.96h16.19v2.23L460.63,238.04z"/>
</g>
<g>
	<path class="st1" d="M267.48,353.24h-6.96v2.88h6.26v2.66h-6.26v2.9h7.18v2.76h-10.3v-13.98h10.08V353.24z"/>
	<path class="st1" d="M276.04,355.96c2.98,0.74,4.54,1.86,4.54,4.28c0,2.74-2.1,4.36-5.12,4.36c-2.12,0-4.2-0.82-5.98-2.46
		l1.86-2.28c1.42,1.24,2.72,1.98,4.18,1.98c1.14,0,1.84-0.54,1.84-1.38c0-0.8-0.46-1.22-2.58-1.74c-3-0.72-4.7-1.66-4.7-4.34
		c0-2.92,2.36-4.24,5-4.24c1.84,0,3.82,0.64,5.24,1.84l-1.58,2.28c-1.4-1.06-2.7-1.38-3.76-1.38c-1.06,0-1.68,0.58-1.68,1.3
		C273.3,355.04,273.84,355.42,276.04,355.96z"/>
	<path class="st1" d="M289.04,364.44h-3.12v-11.28h-3.96v-2.7H293v2.7h-3.96V364.44z"/>
</g>
<g>
	<path class="st1" d="M274.79,313l-8.34,8.34l-1.43-1.43l8.34-8.34l-8.34-8.34l1.52-1.52l8.34,8.34l8.34-8.34l1.43,1.43l-8.34,8.34
		l8.34,8.34l-1.52,1.52L274.79,313z"/>
</g>
</svg>
