<?xml version="1.0" encoding="utf-8"?>
<!-- Generator: Adobe Illustrator 23.0.6, SVG Export Plug-In . SVG Version: 6.00 Build 0)  -->
<svg version="1.1" id="Layer_1" xmlns="http://www.w3.org/2000/svg" xmlns:xlink="http://www.w3.org/1999/xlink" x="0px" y="0px"
	 viewBox="0 0 133.23 66.44" style="enable-background:new 0 0 133.23 66.44;" xml:space="preserve">
<g>
	<path class="brand-std-fill" d="M23.52,0.85c-3.55-1.52-8.54-0.93-11.92,1.27C4.83,6.6,5.26,14.29,5.26,19.7v3.63H0.19v4.14h5.07v26.54
		c0,5.49-0.68,7.19-2.79,8.62c-0.51,0.34-1.27,0.76-1.94,1.1c-0.34,0.17-0.59,0.59-0.51,1.01c0.17,0.51,0.85,0.51,0.85,0.51h22.91
		c0,0,0.76,0,0.93-0.51c0.08-0.42-0.17-0.85-0.51-1.01c-0.76-0.34-1.44-0.76-2.03-1.1c-2.03-1.44-2.79-3.13-2.79-8.62V27.47h7.19
		v-4.14c0,0-4.4-0.34-7.02-1.61c-4.73-2.2-6.51-7.52-7.27-10.65c-0.25-1.35-0.08-2.28,0-2.79c0.17-1.18,1.1-2.2,1.94-2.03
		c0.76,0.17,0.85,1.18,0.93,1.78c0.08,0.59,0.17,1.44,0.42,1.94c0.85,2.71,2.45,4.31,4.73,4.82c1.94,0.59,4.65-0.08,6.51-1.69
		c1.86-1.78,2.28-4.4,2.03-6.26C28.33,4.23,26.05,1.86,23.52,0.85z"/>
	<path class="brand-std-fill" d="M42.79,17.25c4.31,0,7.78-3.47,7.78-7.78c0-4.31-3.47-7.69-7.78-7.69c-4.31,0-7.78,3.38-7.78,7.69
		C35.01,13.78,38.48,17.25,42.79,17.25z"/>
	<path class="brand-std-fill" d="M54.2,63.74c-0.76-0.34-1.44-0.76-2.03-1.1c-2.03-1.44-2.79-3.13-2.79-8.62V24.71c0-1.44-0.29-1.28-2.03-1.35
		L30.87,23.5c0,0-0.68,0.08-0.85,0.59c-0.08,0.34,0.17,0.68,0.51,0.93c0.68,0.34,1.44,0.68,1.94,1.01c2.11,1.44,2.79,7.69,2.79,13.1
		v14.88c0,5.49-0.68,7.19-2.79,8.62c-0.51,0.34-1.27,0.76-1.94,1.1c-0.34,0.17-0.59,0.59-0.51,1.01c0.17,0.51,0.85,0.51,0.85,0.51
		h22.91c0,0,0.76,0,0.93-0.51C54.79,64.33,54.54,63.91,54.2,63.74z"/>
	<path class="brand-std-fill" d="M95.83,25.28c0,0,0.68-0.51,0.34-0.93c-0.17-0.34-0.34-0.42-1.27-0.42h-9.89c0,0-0.68,0-0.85,0.25
		c-0.17,0.34,0.08,0.76,0.08,0.76c3.21,3.64,1.78,6.42-1.01,12.34l-4.06,8.54c0,0-5.83-13.95-6.17-14.96
		c-0.59-2.11,0.09-3.89,1.61-5.83c0.25-0.25,0.25-0.51,0.17-0.76c-0.17-0.42-0.85-0.34-1.78-0.34H56.1c-1.52,0-1.94,0-2.2,0.51
		c-0.25,0.76,0.76,1.35,1.69,2.62c0.59,0.93,1.01,1.52,1.61,2.79l15.22,33.73c0.59,1.44,0.93,2.87,2.37,2.87
		c0.93,0,1.27-0.34,1.78-1.35l14.96-33.9C92.7,28.32,93.88,26.97,95.83,25.28z"/>
	<path class="brand-std-fill" d="M132.91,48.1c-0.17-0.08-0.68,0.17-0.68,0.17c-2.45,3.3-3.55,4.9-6.93,6.68c-3.47,1.69-9.38,1.27-12.26-0.42
		c-4.4-2.45-5.49-7.69-5.66-11.41h17.41c4.56,0,7.52,0.17,8.2-0.59c0.76-1.1-0.59-7.44-1.1-9.05c-1.94-6-5.75-9.05-11.33-10.65
		c-5.16-1.52-13.61-1.18-19.27,3.55c-6.59,5.49-8.54,15.38-8.03,21.05c0.51,5.92,3.64,13.02,10.06,16.57
		c5.33,2.96,13.19,3.21,18.6,0.51c6.93-3.38,10.48-10.14,11.24-15.81C133.17,48.69,133.25,48.27,132.91,48.1z M111.19,27.22
		c1.44-0.93,3.47-1.18,5.16-0.25c2.87,1.52,3.21,4.65,3.21,7.27c0,0.93,0,1.61-0.17,2.2c-0.34,1.1-1.35,2.11-2.71,2.11
		c0,0-7.19,0-9.13,0C107.22,35.59,106.96,29.93,111.19,27.22z"/>
</g>
</svg>
